# xmcd
#
# Track frame offsets:
#	150
#	32135
#	53545
#	75215
#	93715
#	113725
#	132955
#	150280
#	173625
#	194342
#	214067
#	241332
#	267285
#	280485
#
# Disc length: 4175 seconds
#
# Revision: 0
# Processed by: cddbd v1.5.2PL0 Copyright (c) Steve Scherf et al.
# Submitted via: audiograbber 1.83.01
#
DISCID=b4104d0e
DTITLE=Hank Shizzoe - Walk
DYEAR=1996
DGENRE=Blues
TTITLE0=Handmade Love
TTITLE1=End Of The Trail
TTITLE2=Joe Went To The Water
TTITLE3=The Hurry And The Grace
TTITLE4=One Match
TTITLE5=(You Can Keep On) Fallin' Forever And Ever
TTITLE6=Walk
TTITLE7=Be Good To Me
TTITLE8=Big Easy Glow
TTITLE9=Where The Roads Have No End
TTITLE10=The Only Thing I Do
TTITLE11=Southern Movements
TTITLE12=The Whole Book
TTITLE13=Blood In My Eyes
EXTD=
EXTT0=
EXTT1=
EXTT2=
EXTT3=
EXTT4=
EXTT5=
EXTT6=
EXTT7=
EXTT8=
EXTT9=
EXTT10=
EXTT11=
EXTT12=
EXTT13=
PLAYORDER=
